<svg xmlns="http://www.w3.org/2000/svg" viewBox="0 0 512 512" width="512" height="512">
  <defs>
    <linearGradient id="bg" x1="0" y1="0" x2="1" y2="1">
      <stop offset="0" stop-color="#f8a959"/>
      <stop offset="1" stop-color="#f4801d"/>
    </linearGradient>
  </defs>
  <!-- 背景の角丸スクエア -->
  <rect x="0" y="0" width="512" height="512" rx="116" fill="url(#bg)"/>
  <!-- ピン（外側オレンジ） -->
  <path d="M256 92 C173 92 108 157 108 239 C108 319 197 382 256 462 C315 382 404 319 404 239 C404 157 339 92 256 92 Z" fill="#f2741c"/>
  <!-- ピン内側の白 -->
  <path d="M256 128 C192 128 141 179 141 241 C141 307 214 356 256 420 C298 356 371 307 371 241 C371 179 320 128 256 128 Z" fill="#ffffff"/>
  <!-- フォーク -->
  <g fill="#f2741c">
    <rect x="203" y="188" width="8" height="58" rx="4"/>
    <rect x="217" y="188" width="8" height="58" rx="4"/>
    <rect x="231" y="188" width="8" height="58" rx="4"/>
    <rect x="212" y="236" width="18" height="112" rx="9"/>
  </g>
  <!-- スプーン -->
  <g fill="#f2741c">
    <ellipse cx="298" cy="222" rx="27" ry="36"/>
    <rect x="291" y="250" width="14" height="98" rx="7"/>
  </g>
</svg>
